<svg width="20" height="18" viewBox="0 0 20 18" fill="none" xmlns="http://www.w3.org/2000/svg">
<path d="M16.7992 9.9375H5.93768C5.41993 9.9375 5.00018 9.51775 5.00018 9C5.00018 8.48226 5.41993 8.06251 5.93768 8.06251H16.7992L15.5871 6.85039C15.2209 6.48427 15.2209 5.89071 15.5871 5.52459C15.9531 5.15847 16.5467 5.15847 16.9129 5.52459L19.7252 8.33701C19.7472 8.35895 19.7679 8.38195 19.7875 8.40595C19.7961 8.41638 19.8035 8.42745 19.8116 8.43813C19.8219 8.45188 19.8325 8.46532 19.8421 8.47963C19.8509 8.4927 19.8584 8.50626 19.8664 8.51963C19.8741 8.53251 19.8822 8.54507 19.8892 8.55832C19.8966 8.57207 19.9028 8.58619 19.9094 8.60019C19.9159 8.61388 19.9227 8.62738 19.9285 8.64138C19.9342 8.65507 19.9388 8.66901 19.9437 8.68288C19.9492 8.69788 19.9549 8.71269 19.9595 8.72801C19.9637 8.74188 19.9668 8.75594 19.9703 8.77001C19.9742 8.78557 19.9786 8.80107 19.9817 8.81694C19.9849 8.83313 19.9869 8.84951 19.9892 8.86582C19.9912 8.87976 19.9939 8.8935 19.9952 8.90763C19.9982 8.93788 19.9998 8.96832 19.9999 8.99869C19.9999 8.99913 19.9999 8.99963 19.9999 9.00007C19.9999 9.0005 19.9999 9.001 19.9999 9.00144C19.9998 9.03188 19.9982 9.06225 19.9952 9.09257C19.9939 9.1065 19.9912 9.12007 19.9893 9.13388C19.9869 9.15038 19.985 9.16688 19.9817 9.18325C19.9786 9.199 19.9743 9.21425 19.9704 9.22969C19.9668 9.24388 19.9637 9.25819 19.9594 9.27225C19.9549 9.28731 19.9492 9.30188 19.9439 9.31663C19.9389 9.33075 19.9342 9.34494 19.9285 9.35881C19.9228 9.37256 19.9161 9.38575 19.9097 9.39919C19.903 9.4135 19.8966 9.42794 19.8891 9.442C19.8822 9.45481 19.8744 9.467 19.867 9.47944C19.8588 9.49325 19.851 9.50719 19.842 9.52063C19.8329 9.53431 19.8227 9.54713 19.8129 9.56031C19.8044 9.57163 19.7965 9.58331 19.7874 9.59431C19.7687 9.61706 19.7489 9.63887 19.7282 9.65981C19.7272 9.66081 19.7264 9.66194 19.7254 9.66294L16.9129 12.4755C16.7298 12.6585 16.4899 12.7501 16.25 12.7501C16.0101 12.75 15.7701 12.6585 15.5871 12.4755C15.221 12.1094 15.221 11.5159 15.5871 11.1497L16.7992 9.9375Z" fill="#333333"/>
<path d="M0.937465 0.5625H12.8124C13.3301 0.5625 13.7499 0.982247 13.7499 1.49999V5.24997C13.7499 5.76772 13.3301 6.18746 12.8124 6.18746C12.2946 6.18746 11.8749 5.76772 11.8749 5.24997V2.43749H1.87496V15.5625H11.8749V12.7499C11.8749 12.2322 12.2946 11.8124 12.8124 11.8124C13.3301 11.8124 13.7499 12.2322 13.7499 12.7499V16.5C13.7499 17.0177 13.3301 17.4375 12.8124 17.4375H0.937465C0.419719 17.4375 -2.81334e-05 17.0177 -2.81334e-05 16.5V1.49999C-2.81334e-05 0.982247 0.419719 0.5625 0.937465 0.5625Z" fill="#333333"/>
</svg>
